<svg width="139" height="177" viewBox="0 0 139 177" fill="none" xmlns="http://www.w3.org/2000/svg">
<path d="M3.74999 142.793H19.8724V129.433H23.6224V160.31H19.8724V146.186H3.74999V160.31H0V129.433H3.74999V142.793Z" fill="url(#paint0_linear_247_3189)"/>
<path d="M28.333 160.31L40.8673 129.433H44.1095L56.6438 160.31H52.5736L48.8972 151.012H36.0317L32.359 160.31H28.333ZM42.4534 134.233C41.0808 138.077 39.7707 141.57 38.5194 144.709L37.3676 147.615H47.5651L46.3985 144.709C45.1362 141.511 43.8519 138.018 42.5418 134.23H42.4498L42.4534 134.233Z" fill="url(#paint1_linear_247_3189)"/>
<path d="M69.8661 160.31H66.1161V132.826H55.8376V129.433H80.1482V132.826H69.8698V160.31H69.8661Z" fill="url(#paint2_linear_247_3189)"/>
<path d="M84.9763 160.31V129.433H88.7263V160.31H84.9763Z" fill="url(#paint3_linear_247_3189)"/>
<path d="M112.849 160.311H111.123L103.373 141.873C102.299 139.337 101.228 136.574 100.153 133.587H99.9691C100.183 137.878 100.293 141.811 100.293 145.378V160.307H96.543V129.429H101.949L109.195 146.899C110.023 148.9 110.936 151.308 111.933 154.122H112.047C113.151 150.998 114.064 148.59 114.785 146.899L122.031 129.429H127.437V160.307H123.687V145.378C123.687 141.884 123.794 137.956 124.011 133.587H123.827C122.694 136.741 121.619 139.503 120.607 141.873L112.857 160.311H112.849Z" fill="url(#paint4_linear_247_3189)"/>
<path d="M135.25 160.31V129.433H139V160.31H135.25Z" fill="url(#paint5_linear_247_3189)"/>
<path d="M9.16354 171.639V175.878H7.91968V165.646H10.562C11.0073 165.646 11.3863 165.665 11.6991 165.694C12.0119 165.727 12.2953 165.779 12.5566 165.849C13.2668 166.045 13.8115 166.374 14.1868 166.839C14.5622 167.304 14.7499 167.888 14.7499 168.586C14.7499 168.999 14.6837 169.368 14.5512 169.693C14.4187 170.018 14.2347 170.303 13.9955 170.543C13.7563 170.783 13.4692 170.978 13.138 171.13C12.8068 171.281 12.4351 171.396 12.0303 171.466V171.495L15.048 175.871H13.8041L10.665 171.632H9.16354V171.639ZM9.16354 166.769V170.517H10.389C10.7717 170.517 11.0956 170.506 11.3642 170.48C11.6329 170.454 11.8758 170.41 12.0892 170.343C12.5198 170.21 12.8547 170 13.0865 169.708C13.322 169.416 13.4361 169.036 13.4361 168.567C13.4324 168.128 13.3183 167.777 13.1012 167.507C12.8841 167.238 12.5786 167.046 12.1922 166.931C12.0082 166.876 11.7911 166.835 11.5372 166.809C11.2833 166.784 10.9594 166.772 10.5693 166.772H9.15986L9.16354 166.769Z" fill="url(#paint6_linear_247_3189)"/>
<path d="M26.206 174.752H31.4354V175.875H24.9622V165.642H31.152V166.765H26.206V170.07H30.6037V171.192H26.206V174.748V174.752Z" fill="url(#paint7_linear_247_3189)"/>
<path d="M45.0366 175.875H43.7928V166.765H40.385V165.642H48.4407V166.765H45.0329V175.875H45.0366Z" fill="url(#paint8_linear_247_3189)"/>
<path d="M59.0908 171.639V175.878H57.8469V165.646H60.4892C60.9345 165.646 61.3136 165.665 61.6264 165.694C61.9392 165.727 62.2225 165.779 62.4838 165.849C63.1941 166.045 63.7387 166.374 64.1141 166.839C64.4895 167.304 64.6771 167.888 64.6771 168.586C64.6771 168.999 64.6109 169.368 64.4784 169.693C64.3459 170.018 64.1619 170.303 63.9227 170.543C63.6835 170.783 63.3965 170.978 63.0653 171.13C62.7341 171.281 62.3624 171.396 61.9576 171.466V171.495L64.9752 175.871H63.7314L60.5923 171.632H59.0908V171.639ZM59.0908 166.769V170.517H60.3162C60.699 170.517 61.0228 170.506 61.2915 170.48C61.5601 170.454 61.803 170.41 62.0164 170.343C62.447 170.21 62.7819 170 63.0137 169.708C63.2493 169.416 63.3633 169.036 63.3633 168.567C63.3597 168.128 63.2456 167.777 63.0285 167.507C62.8113 167.238 62.5059 167.046 62.1195 166.931C61.9355 166.876 61.7184 166.835 61.4644 166.809C61.2105 166.784 60.8867 166.772 60.4966 166.772H59.0871L59.0908 166.769Z" fill="url(#paint9_linear_247_3189)"/>
<path d="M76.1374 174.752H81.3668V175.875H74.8936V165.642H81.0834V166.765H76.1374V170.07H80.5351V171.192H76.1374V174.748V174.752Z" fill="url(#paint10_linear_247_3189)"/>
<path d="M90.2759 175.875L94.4307 165.642H95.5053L99.6601 175.875H98.3095L97.0914 172.791H92.8262L91.6081 175.875H90.2759ZM94.9569 167.23C94.5006 168.504 94.0664 169.66 93.6542 170.701L93.2715 171.665H96.6535L96.267 170.701C95.8475 169.641 95.4206 168.482 94.9901 167.226H94.9606L94.9569 167.23Z" fill="url(#paint11_linear_247_3189)"/>
<path d="M111.849 175.875H110.605V166.765H107.197V165.642H115.253V166.765H111.845V175.875H111.849Z" fill="url(#paint12_linear_247_3189)"/>
<path d="M125.653 168.349C125.653 168.648 125.715 168.899 125.837 169.095C125.958 169.291 126.12 169.453 126.326 169.582C126.532 169.712 126.771 169.815 127.04 169.896C127.312 169.978 127.592 170.055 127.886 170.125C128.28 170.221 128.67 170.328 129.053 170.446C129.436 170.565 129.778 170.727 130.076 170.934C130.374 171.141 130.617 171.41 130.801 171.743C130.985 172.075 131.077 172.5 131.077 173.02C131.077 173.541 130.978 174.01 130.775 174.394C130.577 174.778 130.297 175.095 129.944 175.343C129.59 175.59 129.171 175.775 128.689 175.893C128.207 176.011 127.677 176.074 127.103 176.074C126.838 176.074 126.569 176.056 126.289 176.026C126.013 175.993 125.748 175.948 125.498 175.893C125.248 175.838 125.02 175.775 124.817 175.701C124.615 175.631 124.453 175.557 124.339 175.487V174.346C124.523 174.438 124.729 174.523 124.957 174.597C125.185 174.675 125.421 174.737 125.667 174.793C125.91 174.848 126.157 174.889 126.407 174.918C126.657 174.948 126.889 174.963 127.11 174.963C127.467 174.963 127.806 174.933 128.129 174.87C128.453 174.807 128.737 174.708 128.979 174.564C129.222 174.42 129.417 174.228 129.557 173.98C129.701 173.733 129.771 173.423 129.771 173.05C129.771 172.743 129.708 172.492 129.583 172.293C129.458 172.093 129.292 171.931 129.082 171.798C128.873 171.669 128.634 171.562 128.361 171.48C128.089 171.399 127.802 171.322 127.504 171.251C127.106 171.159 126.72 171.056 126.341 170.941C125.962 170.827 125.623 170.668 125.329 170.465C125.031 170.262 124.792 170 124.611 169.678C124.431 169.357 124.343 168.947 124.343 168.449C124.343 167.95 124.438 167.481 124.626 167.105C124.814 166.728 125.071 166.422 125.395 166.174C125.719 165.927 126.091 165.75 126.514 165.631C126.937 165.513 127.386 165.454 127.864 165.454C128.409 165.454 128.913 165.506 129.384 165.609C129.855 165.713 130.286 165.849 130.676 166.019V167.175C130.253 166.998 129.818 166.85 129.37 166.739C128.921 166.628 128.438 166.569 127.923 166.562C127.537 166.562 127.202 166.602 126.919 166.687C126.635 166.772 126.396 166.891 126.208 167.046C126.021 167.201 125.881 167.389 125.789 167.611C125.697 167.832 125.653 168.08 125.653 168.349Z" fill="url(#paint13_linear_247_3189)"/>
<path d="M69.5016 0C97.5401 0 120.349 22.9643 120.349 51.1941V106.107C120.349 108.422 118.737 110.039 116.43 110.039H83.8539V108.204H116.43C117.861 108.204 118.697 107.517 118.697 106.011V51.1905C118.697 24.973 96.874 1.70967 69.5053 1.70967C42.1366 1.70967 20.3138 24.973 20.3138 51.1905V106.011C20.3138 107.514 21.1491 108.204 22.5807 108.204H55.1567V110.039H22.5733C20.2659 110.039 18.6541 108.422 18.6541 106.107V51.1941C18.6541 22.9643 41.4631 0 69.5016 0Z" fill="url(#paint14_linear_247_3189)"/>
<path d="M60.8056 117.007H18.6541V113.252L56.9526 113.359V77.1348C56.9526 72.0612 55.6866 67.15 38.7988 59.6984C32.8702 57.0803 29.2379 54.6727 27.0115 52.7194V104.087H23.2689V52.1064C23.2689 50.5481 23.3461 48.9751 23.5007 47.4316C23.5007 47.4316 23.8135 44.0824 24.8955 41.1431C25.3996 44.2633 27.1845 47.162 27.1845 47.162C27.3869 47.631 29.3152 51.4011 40.3076 56.2532C55.6351 63.018 60.8056 68.2578 60.8056 77.024V117.004V117.007Z" fill="url(#paint15_linear_247_3189)"/>
<path d="M77.7856 77.024C77.7856 68.2578 83.096 63.018 98.4198 56.2532C109.409 51.4048 111.337 47.631 111.543 47.162C111.543 47.162 113.328 44.2633 113.832 41.1431C114.914 44.0787 115.227 47.4316 115.227 47.4316C115.381 48.9751 115.459 50.5444 115.459 52.1064V104.087H111.716V52.7194C109.493 54.6727 105.861 57.0803 99.9286 59.6984C83.0408 67.15 81.6681 71.9578 81.6681 77.0314V113.256H120.346V117.011H77.7856V77.0314V77.024Z" fill="url(#paint16_linear_247_3189)"/>
<path d="M74.4147 41.1429C74.4147 41.1429 72.2729 44.0084 69.6711 44.0084C67.0693 44.0084 65.0342 41.1429 65.0342 41.1429C65.0342 41.1429 67.0509 38.2775 69.6711 38.2775C71.9601 38.2775 74.4147 41.1429 74.4147 41.1429Z" fill="url(#paint17_linear_247_3189)"/>
<path d="M57.6778 57.1687C57.6778 57.1687 54.1376 57.6377 52.3197 55.7729C50.487 53.8934 51.1163 50.4445 51.1163 50.4445C51.1163 50.4445 54.5682 49.8869 56.4009 51.7665C58.0017 53.406 57.6778 57.1687 57.6778 57.1687Z" fill="url(#paint18_linear_247_3189)"/>
<path d="M37.8051 45.67C37.8051 45.67 33.9152 45.5297 32.2997 43.196C30.6694 40.8438 31.9648 37.2472 31.9648 37.2472C31.9648 37.2472 35.7737 37.2767 37.4076 39.6289C38.8318 41.682 37.8051 45.67 37.8051 45.67Z" fill="url(#paint19_linear_247_3189)"/>
<path d="M80.9871 57.1687C80.9871 57.1687 84.5273 57.6377 86.3453 55.7729C88.1779 53.8934 87.5486 50.4445 87.5486 50.4445C87.5486 50.4445 84.0967 49.8869 82.2641 51.7665C80.6632 53.406 80.9871 57.1687 80.9871 57.1687Z" fill="url(#paint20_linear_247_3189)"/>
<path d="M101.621 45.67C101.621 45.67 105.511 45.5297 107.127 43.196C108.757 40.8438 107.461 37.2472 107.461 37.2472C107.461 37.2472 103.653 37.2767 102.019 39.6289C100.594 41.682 101.621 45.67 101.621 45.67Z" fill="url(#paint21_linear_247_3189)"/>
<path d="M87.3683 27.6724C87.3683 27.6724 91.4458 27.5247 93.146 25.0765C94.8462 22.6284 93.4956 18.8361 93.4956 18.8361C93.4956 18.8361 89.4991 18.8656 87.7878 21.3359C86.2937 23.4924 87.3683 27.6724 87.3683 27.6724Z" fill="url(#paint22_linear_247_3189)"/>
<path d="M51.5613 27.6724C51.5613 27.6724 47.4838 27.5247 45.7836 25.0765C44.0834 22.6284 45.434 18.8361 45.434 18.8361C45.434 18.8361 49.4305 18.8656 51.1418 21.3359C52.6359 23.4924 51.5613 27.6724 51.5613 27.6724Z" fill="url(#paint23_linear_247_3189)"/>
<path d="M69.465 23.2524C69.465 23.2524 65.3911 20.1838 65.3911 16.4617C65.3911 12.7396 69.465 9.81873 69.465 9.81873C69.465 9.81873 73.5388 12.7063 73.5388 16.4617C73.5388 19.737 69.465 23.2524 69.465 23.2524Z" fill="url(#paint24_linear_247_3189)"/>
<path d="M79.3015 90.4242H59.1899V94.2756H79.3015V90.4242Z" fill="url(#paint25_linear_247_3189)"/>
<path d="M64.2722 56.1903C59.5654 62.3385 56.9673 69.5981 56.9673 78.9995H60.8056C60.8056 70.7576 62.9695 64.3657 67.0176 58.9007C66.1932 58.0071 65.2806 57.1024 64.2722 56.1903Z" fill="url(#paint26_linear_247_3189)"/>
<path d="M102.806 18.5516H102.707C102.689 19.0132 102.074 29.9876 86.4853 38.7834C78.4186 43.3326 71.7135 47.893 66.7417 53.262C67.7316 54.1556 68.6443 55.0493 69.4797 55.9318C74.1092 50.8988 80.4868 46.5858 88.3695 42.1399C100.665 35.2016 104.643 26.7787 105.927 22.1371C104.948 20.889 103.91 19.689 102.81 18.5516H102.806Z" fill="url(#paint27_linear_247_3189)"/>
<path d="M53.6113 40.4893C36.613 30.1648 36.1972 19.8034 36.1972 19.6926H36.1052C35.0269 20.8853 34.0186 22.1408 33.0691 23.4406C34.4418 27.8237 38.4788 35.4379 50.3323 42.9781C51.4106 42.0476 52.5183 41.2242 53.6113 40.4856V40.4893Z" fill="url(#paint28_linear_247_3189)"/>
<path d="M57.4494 42.679C56.2902 43.3695 55.0868 44.1818 53.9055 45.1161C54.314 45.345 54.7225 45.5703 55.1457 45.7992C76.1736 57.1096 77.8113 70.0448 77.8113 73.7374V87.8726H81.6496V73.7374C81.6496 69.5315 79.8831 54.9421 57.4531 42.679H57.4494Z" fill="url(#paint29_linear_247_3189)"/>
<path d="M90.3935 45.3156C90.3162 45.3599 90.2426 45.4005 90.1653 45.4448C93.4442 48.794 94.9935 52.542 94.9935 57.7042H98.8319C98.8319 51.6816 96.9219 47.2025 93.4921 43.4213C92.5205 44.0601 91.4938 44.6952 90.3935 45.3119V45.3156Z" fill="url(#paint30_linear_247_3189)"/>
<path d="M87.0963 42.7678C87.5636 42.4982 88.0384 42.2286 88.5168 41.9591C89.2565 41.5418 89.952 41.1172 90.6291 40.6925C85.7678 36.6344 78.978 33.2372 70.8487 29.1827C55.9886 21.7643 54.7705 9.0876 54.6748 7.25977C53.4126 7.71026 52.1761 8.21615 50.969 8.77004C51.5357 13.179 54.4209 25.2796 69.1412 32.6279C76.9834 36.5421 82.912 39.5958 87.0999 42.7678H87.0963Z" fill="url(#paint31_linear_247_3189)"/>
<path d="M47.8666 45.9212C47.9439 45.9655 48.0175 46.0061 48.0948 46.0504C44.8158 49.3996 43.2665 53.1476 43.2665 58.3098H39.4282C39.4282 52.2872 41.3382 47.8081 44.768 44.0269C45.7395 44.6657 46.7663 45.3008 47.8666 45.9175V45.9212Z" fill="url(#paint32_linear_247_3189)"/>
<path d="M67.8233 31.8376C68.5115 32.181 69.1849 32.517 69.851 32.853C83.9457 25.4457 87.1621 12.7912 87.7178 8.45974C86.5107 7.90585 85.3772 7.56244 84.1187 7.11194C84.0193 8.93608 82.2749 22.3697 67.4148 29.7882C66.8223 30.0836 66.2409 30.3753 65.6631 30.6633C66.3513 31.0658 67.0652 31.4609 67.8233 31.8413V31.8376Z" fill="url(#paint33_linear_247_3189)"/>
<path d="M61.6557 32.6831C56.0877 35.5301 51.3846 38.1703 47.7229 41.2241C48.3964 41.6487 48.86 41.9146 49.5261 42.4426C50.0634 42.8673 50.5418 43.207 51.0129 43.4766C54.5494 40.7994 59.4366 38.1297 65.5897 35.0094C64.1691 34.2746 62.859 33.4955 61.6557 32.6831Z" fill="url(#paint34_linear_247_3189)"/>
<defs>
<linearGradient id="paint0_linear_247_3189" x1="-3.02502" y1="144.872" x2="139.206" y2="144.872" gradientUnits="userSpaceOnUse">
<stop stop-color="#BC8E4B"/>
<stop offset="0.25" stop-color="#F0E79C"/>
<stop offset="0.62" stop-color="#DEC17A"/>
<stop offset="0.91" stop-color="#BC8E4B"/>
</linearGradient>
<linearGradient id="paint1_linear_247_3189" x1="-3.02489" y1="-6.50513e-05" x2="139.206" y2="-6.50513e-05" gradientUnits="userSpaceOnUse">
<stop stop-color="#BC8E4B"/>
<stop offset="0.25" stop-color="#F0E79C"/>
<stop offset="0.62" stop-color="#DEC17A"/>
<stop offset="0.91" stop-color="#BC8E4B"/>
</linearGradient>
<linearGradient id="paint2_linear_247_3189" x1="-3.02511" y1="-6.50513e-05" x2="139.206" y2="-6.50513e-05" gradientUnits="userSpaceOnUse">
<stop stop-color="#BC8E4B"/>
<stop offset="0.25" stop-color="#F0E79C"/>
<stop offset="0.62" stop-color="#DEC17A"/>
<stop offset="0.91" stop-color="#BC8E4B"/>
</linearGradient>
<linearGradient id="paint3_linear_247_3189" x1="-3.02527" y1="-6.50513e-05" x2="139.206" y2="-6.50513e-05" gradientUnits="userSpaceOnUse">
<stop stop-color="#BC8E4B"/>
<stop offset="0.25" stop-color="#F0E79C"/>
<stop offset="0.62" stop-color="#DEC17A"/>
<stop offset="0.91" stop-color="#BC8E4B"/>
</linearGradient>
<linearGradient id="paint4_linear_247_3189" x1="-3.02508" y1="0.00013221" x2="139.206" y2="0.00013221" gradientUnits="userSpaceOnUse">
<stop stop-color="#BC8E4B"/>
<stop offset="0.25" stop-color="#F0E79C"/>
<stop offset="0.62" stop-color="#DEC17A"/>
<stop offset="0.91" stop-color="#BC8E4B"/>
</linearGradient>
<linearGradient id="paint5_linear_247_3189" x1="-3.02507" y1="-6.50513e-05" x2="139.206" y2="-6.50513e-05" gradientUnits="userSpaceOnUse">
<stop stop-color="#BC8E4B"/>
<stop offset="0.25" stop-color="#F0E79C"/>
<stop offset="0.62" stop-color="#DEC17A"/>
<stop offset="0.91" stop-color="#BC8E4B"/>
</linearGradient>
<linearGradient id="paint6_linear_247_3189" x1="5.62699" y1="170.76" x2="132.681" y2="170.76" gradientUnits="userSpaceOnUse">
<stop stop-color="#BC8E4B"/>
<stop offset="0.25" stop-color="#F0E79C"/>
<stop offset="0.62" stop-color="#DEC17A"/>
<stop offset="0.91" stop-color="#BC8E4B"/>
</linearGradient>
<linearGradient id="paint7_linear_247_3189" x1="5.62706" y1="170.76" x2="132.682" y2="170.76" gradientUnits="userSpaceOnUse">
<stop stop-color="#BC8E4B"/>
<stop offset="0.25" stop-color="#F0E79C"/>
<stop offset="0.62" stop-color="#DEC17A"/>
<stop offset="0.91" stop-color="#BC8E4B"/>
</linearGradient>
<linearGradient id="paint8_linear_247_3189" x1="5.62672" y1="170.76" x2="132.681" y2="170.76" gradientUnits="userSpaceOnUse">
<stop stop-color="#BC8E4B"/>
<stop offset="0.25" stop-color="#F0E79C"/>
<stop offset="0.62" stop-color="#DEC17A"/>
<stop offset="0.91" stop-color="#BC8E4B"/>
</linearGradient>
<linearGradient id="paint9_linear_247_3189" x1="5.62672" y1="170.76" x2="132.681" y2="170.76" gradientUnits="userSpaceOnUse">
<stop stop-color="#BC8E4B"/>
<stop offset="0.25" stop-color="#F0E79C"/>
<stop offset="0.62" stop-color="#DEC17A"/>
<stop offset="0.91" stop-color="#BC8E4B"/>
</linearGradient>
<linearGradient id="paint10_linear_247_3189" x1="5.62719" y1="170.76" x2="132.682" y2="170.76" gradientUnits="userSpaceOnUse">
<stop stop-color="#BC8E4B"/>
<stop offset="0.25" stop-color="#F0E79C"/>
<stop offset="0.62" stop-color="#DEC17A"/>
<stop offset="0.91" stop-color="#BC8E4B"/>
</linearGradient>
<linearGradient id="paint11_linear_247_3189" x1="5.62686" y1="170.76" x2="132.681" y2="170.76" gradientUnits="userSpaceOnUse">
<stop stop-color="#BC8E4B"/>
<stop offset="0.25" stop-color="#F0E79C"/>
<stop offset="0.62" stop-color="#DEC17A"/>
<stop offset="0.91" stop-color="#BC8E4B"/>
</linearGradient>
<linearGradient id="paint12_linear_247_3189" x1="5.6271" y1="170.76" x2="132.682" y2="170.76" gradientUnits="userSpaceOnUse">
<stop stop-color="#BC8E4B"/>
<stop offset="0.25" stop-color="#F0E79C"/>
<stop offset="0.62" stop-color="#DEC17A"/>
<stop offset="0.91" stop-color="#BC8E4B"/>
</linearGradient>
<linearGradient id="paint13_linear_247_3189" x1="5.62712" y1="170.76" x2="132.682" y2="170.76" gradientUnits="userSpaceOnUse">
<stop stop-color="#BC8E4B"/>
<stop offset="0.25" stop-color="#F0E79C"/>
<stop offset="0.62" stop-color="#DEC17A"/>
<stop offset="0.91" stop-color="#BC8E4B"/>
</linearGradient>
<linearGradient id="paint14_linear_247_3189" x1="15.7615" y1="55.0197" x2="123.459" y2="55.0197" gradientUnits="userSpaceOnUse">
<stop stop-color="#BC8E4B"/>
<stop offset="0.25" stop-color="#F0E79C"/>
<stop offset="0.62" stop-color="#DEC17A"/>
<stop offset="0.91" stop-color="#BC8E4B"/>
</linearGradient>
<linearGradient id="paint15_linear_247_3189" x1="15.7615" y1="79.0734" x2="123.459" y2="79.0734" gradientUnits="userSpaceOnUse">
<stop stop-color="#BC8E4B"/>
<stop offset="0.25" stop-color="#F0E79C"/>
<stop offset="0.62" stop-color="#DEC17A"/>
<stop offset="0.91" stop-color="#BC8E4B"/>
</linearGradient>
<linearGradient id="paint16_linear_247_3189" x1="15.7617" y1="79.0734" x2="123.459" y2="79.0734" gradientUnits="userSpaceOnUse">
<stop stop-color="#BC8E4B"/>
<stop offset="0.25" stop-color="#F0E79C"/>
<stop offset="0.62" stop-color="#DEC17A"/>
<stop offset="0.91" stop-color="#BC8E4B"/>
</linearGradient>
<linearGradient id="paint17_linear_247_3189" x1="69.6196" y1="45.0238" x2="69.827" y2="37.4836" gradientUnits="userSpaceOnUse">
<stop offset="0.09" stop-color="#BC8E4B"/>
<stop offset="0.38" stop-color="#DEC17A"/>
<stop offset="0.75" stop-color="#F0E79C"/>
<stop offset="1" stop-color="#BC8E4B"/>
</linearGradient>
<linearGradient id="paint18_linear_247_3189" x1="57.5858" y1="50.9652" x2="50.9345" y2="56.8509" gradientUnits="userSpaceOnUse">
<stop stop-color="#BC8E4B"/>
<stop offset="0.25" stop-color="#F0E79C"/>
<stop offset="0.62" stop-color="#DEC17A"/>
<stop offset="0.91" stop-color="#BC8E4B"/>
</linearGradient>
<linearGradient id="paint19_linear_247_3189" x1="38.3203" y1="38.4953" x2="31.5331" y2="44.3142" gradientUnits="userSpaceOnUse">
<stop stop-color="#BC8E4B"/>
<stop offset="0.25" stop-color="#F0E79C"/>
<stop offset="0.62" stop-color="#DEC17A"/>
<stop offset="0.91" stop-color="#BC8E4B"/>
</linearGradient>
<linearGradient id="paint20_linear_247_3189" x1="88.0786" y1="54.9864" x2="80.6294" y2="52.6928" gradientUnits="userSpaceOnUse">
<stop stop-color="#BC8E4B"/>
<stop offset="0.25" stop-color="#F0E79C"/>
<stop offset="0.62" stop-color="#DEC17A"/>
<stop offset="0.91" stop-color="#BC8E4B"/>
</linearGradient>
<linearGradient id="paint21_linear_247_3189" x1="108.271" y1="43.5874" x2="100.408" y2="39.1312" gradientUnits="userSpaceOnUse">
<stop stop-color="#BC8E4B"/>
<stop offset="0.25" stop-color="#F0E79C"/>
<stop offset="0.62" stop-color="#DEC17A"/>
<stop offset="0.91" stop-color="#BC8E4B"/>
</linearGradient>
<linearGradient id="paint22_linear_247_3189" x1="90.57" y1="27.8275" x2="90.4329" y2="18.7955" gradientUnits="userSpaceOnUse">
<stop stop-color="#BC8E4B"/>
<stop offset="0.25" stop-color="#F0E79C"/>
<stop offset="0.62" stop-color="#DEC17A"/>
<stop offset="0.91" stop-color="#BC8E4B"/>
</linearGradient>
<linearGradient id="paint23_linear_247_3189" x1="53.2615" y1="24.6925" x2="43.1023" y2="21.5879" gradientUnits="userSpaceOnUse">
<stop stop-color="#BC8E4B"/>
<stop offset="0.25" stop-color="#F0E79C"/>
<stop offset="0.62" stop-color="#DEC17A"/>
<stop offset="0.91" stop-color="#BC8E4B"/>
</linearGradient>
<linearGradient id="paint24_linear_247_3189" x1="75.0035" y1="16.4396" x2="63.3634" y2="16.6413" gradientUnits="userSpaceOnUse">
<stop stop-color="#BC8E4B"/>
<stop offset="0.48" stop-color="#F0E79C"/>
<stop offset="0.69" stop-color="#DEC17A"/>
<stop offset="0.91" stop-color="#BC8E4B"/>
</linearGradient>
<linearGradient id="paint25_linear_247_3189" x1="15.7614" y1="92.348" x2="123.459" y2="92.348" gradientUnits="userSpaceOnUse">
<stop stop-color="#BC8E4B"/>
<stop offset="0.25" stop-color="#F0E79C"/>
<stop offset="0.62" stop-color="#DEC17A"/>
<stop offset="0.91" stop-color="#BC8E4B"/>
</linearGradient>
<linearGradient id="paint26_linear_247_3189" x1="15.7615" y1="67.593" x2="123.459" y2="67.593" gradientUnits="userSpaceOnUse">
<stop stop-color="#BC8E4B"/>
<stop offset="0.25" stop-color="#F0E79C"/>
<stop offset="0.62" stop-color="#DEC17A"/>
<stop offset="0.91" stop-color="#BC8E4B"/>
</linearGradient>
<linearGradient id="paint27_linear_247_3189" x1="15.7617" y1="37.2399" x2="123.459" y2="37.2399" gradientUnits="userSpaceOnUse">
<stop stop-color="#BC8E4B"/>
<stop offset="0.25" stop-color="#F0E79C"/>
<stop offset="0.62" stop-color="#DEC17A"/>
<stop offset="0.91" stop-color="#BC8E4B"/>
</linearGradient>
<linearGradient id="paint28_linear_247_3189" x1="15.7617" y1="31.3391" x2="123.459" y2="31.3391" gradientUnits="userSpaceOnUse">
<stop stop-color="#BC8E4B"/>
<stop offset="0.25" stop-color="#F0E79C"/>
<stop offset="0.62" stop-color="#DEC17A"/>
<stop offset="0.91" stop-color="#BC8E4B"/>
</linearGradient>
<linearGradient id="paint29_linear_247_3189" x1="15.7616" y1="65.2776" x2="123.459" y2="65.2776" gradientUnits="userSpaceOnUse">
<stop stop-color="#BC8E4B"/>
<stop offset="0.25" stop-color="#F0E79C"/>
<stop offset="0.62" stop-color="#DEC17A"/>
<stop offset="0.91" stop-color="#BC8E4B"/>
</linearGradient>
<linearGradient id="paint30_linear_247_3189" x1="15.7616" y1="50.5627" x2="123.459" y2="50.5627" gradientUnits="userSpaceOnUse">
<stop stop-color="#BC8E4B"/>
<stop offset="0.25" stop-color="#F0E79C"/>
<stop offset="0.62" stop-color="#DEC17A"/>
<stop offset="0.91" stop-color="#BC8E4B"/>
</linearGradient>
<linearGradient id="paint31_linear_247_3189" x1="15.7617" y1="25.0138" x2="123.459" y2="25.0138" gradientUnits="userSpaceOnUse">
<stop stop-color="#BC8E4B"/>
<stop offset="0.25" stop-color="#F0E79C"/>
<stop offset="0.62" stop-color="#DEC17A"/>
<stop offset="0.91" stop-color="#BC8E4B"/>
</linearGradient>
<linearGradient id="paint32_linear_247_3189" x1="15.7617" y1="51.1683" x2="123.459" y2="51.1683" gradientUnits="userSpaceOnUse">
<stop stop-color="#BC8E4B"/>
<stop offset="0.25" stop-color="#F0E79C"/>
<stop offset="0.62" stop-color="#DEC17A"/>
<stop offset="0.91" stop-color="#BC8E4B"/>
</linearGradient>
<linearGradient id="paint33_linear_247_3189" x1="15.7613" y1="19.9806" x2="123.459" y2="19.9806" gradientUnits="userSpaceOnUse">
<stop stop-color="#BC8E4B"/>
<stop offset="0.25" stop-color="#F0E79C"/>
<stop offset="0.62" stop-color="#DEC17A"/>
<stop offset="0.91" stop-color="#BC8E4B"/>
</linearGradient>
<linearGradient id="paint34_linear_247_3189" x1="15.7615" y1="38.078" x2="123.459" y2="38.078" gradientUnits="userSpaceOnUse">
<stop stop-color="#BC8E4B"/>
<stop offset="0.25" stop-color="#F0E79C"/>
<stop offset="0.62" stop-color="#DEC17A"/>
<stop offset="0.91" stop-color="#BC8E4B"/>
</linearGradient>
</defs>
</svg>
